<svg width="285" height="225" viewBox="0 0 285 225" fill="none" xmlns="http://www.w3.org/2000/svg">
<rect x="3" y="131" width="247" height="94" rx="16" fill="#FF8223"/>
<path d="M41 215.1C39.6 215.1 38.4 214.2 37.8 213L14.7 154C14.4 153.3 14.3 152.6 14.3 151.8C14.3 148.6 16.8 146.1 20 146.1C22.3 146.1 24.3 147.5 25.2 149.5L42 192.3L59.1 148.5C59.6 147.3 60.8 146.5 62.3 146.5C63.7 146.5 64.9 147.3 65.4 148.5L82.5 192.3L99.4 149.5C100.3 147.5 102.3 146.1 104.6 146.1C107.8 146.1 110.3 148.6 110.3 151.8C110.3 152.6 110.2 153.3 109.9 154L86.6 213C86.1 214.3 84.9 215.1 83.5 215.1C82.1 215.1 80.9 214.3 80.4 213L62.3 166L44.1 213C43.6 214.3 42.4 215.1 41 215.1ZM166.384 186.6C166.384 190.4 163.384 193.2 159.284 193.2H124.984C126.584 201 132.884 206 141.384 206C146.784 206 151.384 203.7 154.184 200.3C155.384 198.9 156.884 197.7 158.684 197.7C161.484 197.7 163.684 199.7 163.684 202.4C163.684 203.8 163.084 205.4 161.884 206.6C157.884 211.4 150.284 215.3 140.984 215.3C125.684 215.3 113.684 204.3 113.684 189.7C113.684 175.7 124.784 164.1 140.784 164.1C154.984 164.1 166.384 175.4 166.384 186.6ZM125.084 184.9H155.584C153.784 177.6 148.484 173.4 140.784 173.4C132.184 173.4 126.684 178.1 125.084 184.9ZM206.935 215.3C199.435 215.3 191.335 211 188.635 203.6H188.435V210.7C188.435 213.3 185.935 215.1 183.235 215.1C179.735 215.1 177.935 212.9 177.935 209.2V147.9C177.935 144.5 180.335 142 183.635 142C186.935 142 189.335 144.5 189.335 147.9V175H189.535C192.135 168.6 199.435 164.1 207.235 164.1C219.835 164.1 231.835 174.6 231.835 189.6C231.835 204.7 219.835 215.3 206.935 215.3ZM204.935 205.2C213.535 205.2 220.435 198.3 220.435 189.7C220.435 181.1 213.535 174.1 204.935 174.1C196.335 174.1 189.335 181.1 189.335 189.7C189.335 198.3 196.335 205.2 204.935 205.2Z" fill="white"/>
<path d="M67.9 91.1C68.3 91.8 68.5 92.7 68.5 93.6C68.5 96.6 66 99.1 63 99.1C60.7 99.1 58.9 97.8 57.9 95.9L51.8 83.4H17.9L11.8 95.9C10.9 97.8 9 99.1 6.8 99.1C3.7 99.1 1.3 96.6 1.3 93.6C1.3 92.7 1.5 91.8 1.9 91.1L31.5 32.4C32.2 31.1 33.4 30.3 34.9 30.3C36.4 30.3 37.6 31.1 38.3 32.4L67.9 91.1ZM22.1 74.9H47.7L34.9 48.6L22.1 74.9ZM102.869 89.2C106.169 88.7 108.169 91 108.169 93.6C108.169 96.1 106.369 97.9 103.969 98.5C102.369 98.9 100.369 99.3 98.0688 99.3C85.7688 99.3 78.6688 91 78.6688 80.5V58.4H72.8688C70.3688 58.4 68.3688 56.4 68.3688 53.9C68.3688 51.3 70.3688 49.3 72.8688 49.3H78.6688V41.4C78.6688 38.3 81.1687 35.7 84.3688 35.7C87.4688 35.7 90.0688 38.3 90.0688 41.4V49.3H103.469C105.969 49.3 108.069 51.3 108.069 53.9C108.069 56.4 105.969 58.4 103.469 58.4H90.0688V79.5C90.0688 85.4 92.9688 89.9 99.4688 89.9C100.869 89.9 101.969 89.5 102.869 89.2ZM124.733 41.2C120.833 41.2 117.633 38.1 117.633 34.3C117.633 30.6 120.833 27.4 124.733 27.4C128.533 27.4 131.733 30.6 131.733 34.3C131.733 38.1 128.533 41.2 124.733 41.2ZM124.733 99.1C121.433 99.1 119.033 96.6 119.033 93.2V54.1C119.033 50.7 121.433 48.3 124.733 48.3C128.033 48.3 130.433 50.7 130.433 54.1V93.2C130.433 96.6 128.033 99.1 124.733 99.1ZM151.877 99.1C148.777 99.1 146.377 96.7 146.377 93.3V31.8C146.377 28.5 148.677 26 151.977 26C155.177 26 157.577 28.5 157.577 31.8V69.8L178.477 50.6C180.077 49.1 181.577 48.3 183.277 48.3C186.277 48.3 188.477 50.5 188.477 53.2C188.477 54.5 187.977 55.9 186.777 57.1L172.377 70.8L189.177 90.1C189.877 91.1 190.277 92.2 190.277 93.4C190.277 96.5 187.877 99.1 184.777 99.1C182.777 99.1 181.077 98.1 179.977 96.7L163.577 77.7L157.577 83.2V93.3C157.577 96.6 155.077 99.1 151.877 99.1ZM221.723 99.3C206.923 99.3 194.723 87.8 194.723 73.7C194.723 59.6 206.923 48.1 221.723 48.1C236.623 48.1 248.723 59.6 248.723 73.7C248.723 87.8 236.623 99.3 221.723 99.3ZM221.723 89.2C230.223 89.2 237.323 82.2 237.323 73.7C237.323 65.1 230.223 58.1 221.723 58.1C213.223 58.1 206.123 65.1 206.123 73.7C206.123 82.2 213.223 89.2 221.723 89.2Z" fill="#1E1E1E"/>
</svg>
